<?xml version="1.0" encoding="UTF-8" standalone="no"?>
<!-- Created with Inkscape (http://www.inkscape.org/) -->

<svg
   width="129.19792mm"
   height="40.273811mm"
   viewBox="0 0 129.19792 40.273811"
   version="1.1"
   id="svg5"
   sodipodi:docname="objectified white edited T and D.svg"
   inkscape:version="1.1 (c68e22c387, 2021-05-23)"
   xmlns:inkscape="http://www.inkscape.org/namespaces/inkscape"
   xmlns:sodipodi="http://sodipodi.sourceforge.net/DTD/sodipodi-0.dtd"
   xmlns="http://www.w3.org/2000/svg"
   xmlns:svg="http://www.w3.org/2000/svg">
  <sodipodi:namedview
     id="namedview7"
     pagecolor="#505050"
     bordercolor="#eeeeee"
     borderopacity="1"
     inkscape:pageshadow="0"
     inkscape:pageopacity="0"
     inkscape:pagecheckerboard="0"
     inkscape:document-units="mm"
     showgrid="false"
     inkscape:zoom="4"
     inkscape:cx="401.125"
     inkscape:cy="86.125"
     inkscape:window-width="2560"
     inkscape:window-height="1017"
     inkscape:window-x="-8"
     inkscape:window-y="-8"
     inkscape:window-maximized="1"
     inkscape:current-layer="text10593"
     width="177.753mm" />
  <defs
     id="defs2" />
  <g
     inkscape:label="Layer 1"
     inkscape:groupmode="layer"
     id="layer1">
    <g
       aria-label="Data"
       id="text10593"
       style="font-size:35.8218px;line-height:1.25;font-family:'Modern Day Maharaja';-inkscape-font-specification:'Modern Day Maharaja';fill:#b4b4b4;stroke-width:0.223887">
      <path
         d="M 87.429163,35.661075 V 31.681847 H 101.352 l 8e-5,3.979228 z m 8.946704,-15.908167 v -3.979229 h -3.979228 v 3.979229 z M 88.417411,29.696606 88.417,13.779692 h 11.938 l 8e-5,15.916914 h -3.979213 v -7.958457 h -3.979228 v 7.958457 z M 87.429163,11.785706 87.429,7.8064773 h 13.923 l 8e-5,3.9792287 z"
         id="path9571"
         sodipodi:nodetypes="cccccccccccccccccccccccc" />
      <path
         d="m 101.352,35.661075 v -3.979228 h 13.923 v 3.979228 z m 4.96764,-5.964469 V 17.758921 H 102.34 v -3.979229 h 11.938 v 3.979229 h -3.97915 V 29.696606 Z M 101.352,11.785706 V 7.8064767 h 13.923 v 3.9792293 z"
         id="path9573"
         sodipodi:nodetypes="ccccccccccccccccccc" />
      <path
         d="m 115.275,35.661075 v -3.979228 h 13.92292 v 3.979228 z m 8.9467,-15.908167 v -3.979229 h -3.97923 v 3.979229 z m -7.95845,9.943698 V 13.779692 h 11.93768 v 15.916914 h -3.97923 v -7.958457 h -3.97923 v 7.958457 z M 115.275,11.785706 V 7.8064773 h 13.92292 v 3.9792287 z"
         id="path9575" />
      <path
         d="m 78.577812,32.678841 c 0.665967,0 1.236289,-0.195318 1.710967,-0.585953 0.467593,-0.390635 0.701391,-0.859979 0.701391,-1.408034 V 12.782699 c 0,-0.548055 -0.233798,-1.0174 -0.701391,-1.408035 -0.474678,-0.384804 -1.045,-0.577206 -1.710967,-0.577206 h -2.422985 v 21.881383 z m -7.258327,2.982234 V 7.8064773 h 12.093669 c 1.103633,0.03636 2.391959,0.748033 2.412357,1.993987 V 34.664082 c -0.108108,0.690649 -0.660996,0.991006 -1.200865,0.996993 z"
         id="path9569-7"
         style="font-size:35.8218px;line-height:1.25;font-family:'Modern Day Maharaja';-inkscape-font-specification:'Modern Day Maharaja';fill:#b4b4b4;stroke-width:0.246799"
         sodipodi:nodetypes="scsscsccsccccccc" />
      <rect
         style="fill:#000000;stroke-width:0.2;paint-order:stroke fill markers"
         id="rect13426"
         width="41.768921"
         height="3.9792285"
         x="87.428993"
         y="7.8064775" />
      <rect
         style="fill:#000000;stroke-width:0.2;paint-order:stroke fill markers"
         id="rect13428"
         width="41.768757"
         height="3.979228"
         x="87.429161"
         y="31.681847" />
      <path
         style="fill:#b4b4b4;fill-opacity:1;stroke-width:0.188976;paint-order:stroke fill markers"
         d="M 330.5,37.125 V 29.75 h 78.875 78.875 V 37.125 44.5 H 409.375 330.5 Z"
         id="path15419"
         transform="scale(0.26458333)" />
      <path
         style="fill:#b4b4b4;fill-opacity:1;stroke-width:0.188976;paint-order:stroke fill markers"
         d="m 330.5,127.25 v -7.5 h 78.875 78.875 v 7.5 7.5 H 409.375 330.5 Z"
         id="path15458"
         transform="scale(0.26458333)" />
    </g>
    <g
       aria-label=".pk"
       id="text37751"
       style="font-size:43.6336px;line-height:1.25;font-family:'Neutraliser Sans';-inkscape-font-specification:'Neutraliser Sans';fill:#b4b4b4;stroke-width:0.227258">
      <path
         d="m 2.705283,30.848954 q 0,0.567237 -0.3927023,0.959939 -0.3927024,0.392702 -0.9599392,0.392702 -0.56723678,0 -0.95993917,-0.392702 Q -5.2452087e-8,31.416191 -5.2452087e-8,30.848954 q 0,-0.567237 0.392702382452087,-0.959939 0.39270239,-0.392703 0.95993917,-0.392703 0.5672368,0 0.9599392,0.392703 0.3927023,0.392702 0.3927023,0.959939 z"
         id="path13332" />
      <path
         d="m 24.085735,25.482021 q 0,1.396275 -0.523603,2.618016 -0.523604,1.221741 -1.439909,2.138046 -0.916306,0.916306 -2.138047,1.439909 -1.22174,0.523603 -2.618015,0.523603 h -3.359787 q -1.963512,0 -3.577956,-1.003572 -1.5708091,-1.047207 -2.4434811,-2.792551 v 11.170201 q 0,0.698138 -0.6981375,0.698138 -0.2618016,0 -0.4799696,-0.174534 Q 6.6322954,39.924742 6.6322954,39.575673 V 8.7267194 q 0,-0.3490688 0.1745344,-0.5236032 0.218168,-0.1745344 0.4799696,-0.1745344 0.6981375,0 0.6981375,0.6981376 V 11.824705 Q 8.8139753,10.079361 10.428418,9.0757882 12.042862,8.0285818 14.006374,8.0285818 h 3.359787 q 1.396275,0 2.618015,0.5236032 1.221741,0.5236032 2.138047,1.4399088 0.916305,0.9163052 1.439909,2.1380462 0.523603,1.221741 0.523603,2.618016 z M 22.733093,14.748156 q 0,-1.09084 -0.436336,-2.050779 Q 21.904055,11.693804 21.162284,10.952033 20.420512,10.210262 19.41694,9.8175594 18.457001,9.3812234 17.366161,9.3812234 H 13.35187 q -1.134474,0 -2.094413,0.436336 -0.959939,0.3927026 -1.7017105,1.1344736 -0.7417712,0.741771 -1.1781072,1.745344 -0.3927024,0.959939 -0.3927024,2.050779 v 10.733865 q 0,1.134474 0.3927024,2.094413 0.436336,0.959939 1.1781072,1.70171 0.7417715,0.741771 1.7017105,1.178107 0.959939,0.392703 2.094413,0.392703 h 4.014291 q 1.09084,0 2.050779,-0.392703 1.003572,-0.436336 1.745344,-1.178107 0.741771,-0.741771 1.134473,-1.70171 0.436336,-0.959939 0.436336,-2.094413 z"
         id="path13334" />
      <path
         d="m 46.775143,31.547091 q 0,0.261802 -0.218168,0.47997 -0.174535,0.174534 -0.436336,0.174534 -0.392703,0 -0.567237,-0.261801 L 35.212239,17.278905 30.674345,20.464157 v 11.082934 q 0,0.261802 -0.218168,0.47997 -0.174535,0.174534 -0.47997,0.174534 -0.261801,0 -0.479969,-0.174534 -0.174535,-0.218168 -0.174535,-0.47997 V 0.65450372 q 0,-0.26180159 0.174535,-0.43633599 Q 29.714406,-2.5939941e-7 29.976207,-2.5939941e-7 q 0.305435,0 0.47997,0.21816798939941 0.218168,0.1745344 0.218168,0.43633599 V 18.849714 L 45.727936,8.1594826 q 0.130901,-0.1309008 0.392703,-0.1309008 0.261801,0 0.436336,0.218168 0.218168,0.1745344 0.218168,0.4799696 0,0.3490688 -0.305436,0.5236032 L 36.303079,16.4935 46.644242,31.154389 q 0.130901,0.218168 0.130901,0.392702 z"
         id="path13336" />
    </g>
    <g
       aria-label="u"
       id="text39195"
       style="font-size:43.6336px;line-height:1.25;font-family:'Neutraliser Sans';-inkscape-font-specification:'Neutraliser Sans';fill:#008080;stroke-width:0.227258">
      <path
         d="m 68.157065,31.547091 q 0,0.305436 -0.218168,0.47997 -0.174535,0.174534 -0.436336,0.174534 -0.698138,0 -0.698138,-0.654504 v -3.141619 q -0.829038,1.745344 -2.443481,2.792551 -1.614444,1.003572 -3.577955,1.003572 h -4.712429 q -1.134474,0 -2.094413,-0.392702 -0.959939,-0.436336 -1.70171,-1.178107 -0.741771,-0.741771 -1.178107,-1.701711 -0.392703,-0.959939 -0.392703,-2.094412 V 8.7267194 q 0,-0.3490688 0.174535,-0.5236032 0.218168,-0.1745344 0.479969,-0.1745344 0.698138,0 0.698138,0.6981376 V 26.834663 q 0,0.829038 0.305435,1.570809 0.305435,0.741771 0.829038,1.309008 0.567237,0.523603 1.309008,0.829039 0.741772,0.305435 1.57081,0.305435 h 5.366933 q 1.090839,0 2.050779,-0.392703 1.003572,-0.436336 1.745344,-1.178107 0.741771,-0.741771 1.134473,-1.70171 0.436336,-0.959939 0.436336,-2.094413 V 8.7267194 q 0,-0.6981376 0.698138,-0.6981376 0.261801,0 0.436336,0.1745344 0.218168,0.1745344 0.218168,0.5236032 z"
         id="path13339" />
    </g>
  </g>
</svg>
